<svg xmlns="http://www.w3.org/2000/svg" xmlns:xlink="http://www.w3.org/1999/xlink" width="508" height="390" viewBox="0 0 508 390">
  <defs>
    <clipPath id="clip-Instagram_Story_1">
      <rect width="508" height="390"/>
    </clipPath>
  </defs>
  <g id="Instagram_Story_1" data-name="Instagram Story – 1" clip-path="url(#clip-Instagram_Story_1)">
    <rect width="508" height="390" fill="#fff"/>
    <g id="Group_27" data-name="Group 27" transform="translate(-263 -390)">
      <g id="Group_1" data-name="Group 1" transform="translate(375.789 391)">
        <path id="Path_1" data-name="Path 1" d="M4451.145-1268.584s3.881,15.021,40.168,11.139c43.338-4.637,29.48,98.564,8.324,111.054s-87.312,62.107-147.057,54.682,47.256-88.06,47.256-88.06l2.364-31.431s-6.751-4.726-1.688-23.629c0,0-19.576,9.79-32.4-11.814s38.143-31.223,53.671-19.915c0,0,10.3,7.425,12.151-7.258C4434.681-1279.762,4445.069-1283.268,4451.145-1268.584Z" transform="translate(-4277.306 1278.95)"/>
        <path id="Path_2" data-name="Path 2" d="M4490.967-1202.842v152.121h-150.32v-85.511h63.91v-14.854s15.976-6.076,33.755-42.755l20.252-38.7s9.9-15.3,18.9-7.977c10.38,8.447-2.025,23.279-9,20.577,0,0,6.416,15.168,8.1,17.1C4487.144-1190.691,4490.967-1202.842,4490.967-1202.842Z" transform="translate(-4268.637 1329.886)" fill="#a26311"/>
        <path id="Path_3" data-name="Path 3" d="M4446.533-1198.181h-86.412s-39.6-.9-49.509,45.906v62.107H4649.96v-61.208s-1.8-39.607-46.8-46.808h-71.111l-116.012,76.24Z" transform="translate(-4310.612 1391.836)" fill="#fff500"/>
        <path id="Path_4" data-name="Path 4" d="M4372.209-1259.986s8.1,13.5,48.943,6.752c0,0-3.125,25.413,7.425,31.055,0,0-9.676,26.439-21.264,28.015-22.616,4.052-38.819.338-46.583-8.437l2.587-38.255S4372.545-1249.858,4372.209-1259.986Z" transform="translate(-4240.564 1305.456)" fill="#a26311"/>
        <path id="Path_5" data-name="Path 5" d="M4369.008-1248.442l-.815,23.637,11.139-7.879" transform="translate(-4230.135 1321.592)" fill="none" stroke="#000" stroke-linecap="round" stroke-linejoin="round" stroke-width="1"/>
      </g>
      <g id="Group_2" data-name="Group 2" transform="translate(263 731.886)">
        <g id="Group_23" data-name="Group 23" transform="translate(34.872)">
          <path id="Path_9" data-name="Path 9" d="M4217.856-1753.537c19.731,0,19.731,17.047,39.462,17.047s19.731-17.047,39.463-17.047,19.731,17.047,39.463,17.047,19.73-17.047,39.461-17.047,19.731,17.047,39.462,17.047,19.731-17.047,39.464-17.047,19.731,17.047,39.462,17.047,19.734-17.047,39.468-17.047,19.735,17.047,39.469,17.047" transform="translate(-4217.856 1753.537)" fill="none" stroke="#1300f7" stroke-linecap="round" stroke-miterlimit="10" stroke-width="3.5"/>
        </g>
        <g id="Group_24" data-name="Group 24" transform="translate(28.053 14.108)">
          <path id="Path_10" data-name="Path 10" d="M4209.856-1731.985c19.731,0,19.731,17.047,39.462,17.047s19.731-17.047,39.462-17.047,19.731,17.047,39.463,17.047,19.73-17.047,39.462-17.047,19.731,17.047,39.461,17.047,19.732-17.047,39.464-17.047,19.732,17.047,39.462,17.047,19.734-17.047,39.468-17.047,19.734,17.047,39.468,17.047" transform="translate(-4209.856 1731.985)" fill="none" stroke="#1300f7" stroke-linecap="round" stroke-miterlimit="10" stroke-width="3.5"/>
        </g>
        <g id="Group_25" data-name="Group 25" transform="translate(23.792 29.067)">
          <path id="Path_11" data-name="Path 11" d="M4201.856-1712.434c19.731,0,19.731,17.047,39.462,17.047s19.731-17.047,39.462-17.047,19.731,17.047,39.462,17.047,19.731-17.047,39.462-17.047,19.731,17.047,39.461,17.047,19.731-17.047,39.464-17.047,19.731,17.047,39.462,17.047,19.734-17.047,39.468-17.047,19.734,17.047,39.468,17.047" transform="translate(-4201.856 1712.434)" fill="none" stroke="#1300f7" stroke-linecap="round" stroke-miterlimit="10" stroke-width="3.5"/>
        </g>
        <g id="Group_26" data-name="Group 26" transform="translate(0 8.02)">
          <circle id="Ellipse_2-2" data-name="Ellipse 2-2" cx="10" cy="10" r="10" transform="translate(401)" fill="#1400ff"/>
          <circle id="Ellipse_2-2-2" data-name="Ellipse 2-2" cx="5.5" cy="5.5" r="5.5" transform="translate(390 18)" fill="#1400ff"/>
          <circle id="Ellipse_2-2-3" data-name="Ellipse 2-2" cx="8" cy="8" r="8" transform="translate(0 13)" fill="#1400ff"/>
        </g>
      </g>
      <g id="Group_3" data-name="Group 3" transform="translate(455 670.02)">
        <g id="Group_23-2" data-name="Group 23" transform="translate(29.859)">
          <path id="Path_9-2" data-name="Path 9" d="M4217.856-1753.537c14.18,0,14.18,17.047,28.359,17.047s14.18-17.047,28.36-17.047,14.18,17.047,28.359,17.047,14.179-17.047,28.359-17.047,14.179,17.047,28.359,17.047,14.18-17.047,28.36-17.047,14.18,17.047,28.358,17.047,14.182-17.047,28.363-17.047,14.182,17.047,28.363,17.047" transform="translate(-4217.856 1753.537)" fill="none" stroke="#1300f7" stroke-linecap="round" stroke-miterlimit="10" stroke-width="3.5"/>
        </g>
        <g id="Group_24-2" data-name="Group 24" transform="translate(23.04 14.108)">
          <path id="Path_10-2" data-name="Path 10" d="M4209.856-1731.985c14.18,0,14.18,17.047,28.359,17.047s14.18-17.047,28.359-17.047,14.179,17.047,28.359,17.047,14.18-17.047,28.359-17.047,14.179,17.047,28.358,17.047,14.18-17.047,28.361-17.047,14.179,17.047,28.358,17.047,14.181-17.047,28.363-17.047,14.182,17.047,28.363,17.047" transform="translate(-4209.856 1731.985)" fill="none" stroke="#1300f7" stroke-linecap="round" stroke-miterlimit="10" stroke-width="3.5"/>
        </g>
        <g id="Group_25-2" data-name="Group 25" transform="translate(18.778 29.067)">
          <path id="Path_11-2" data-name="Path 11" d="M4201.856-1712.434c14.18,0,14.18,17.047,28.359,17.047s14.18-17.047,28.359-17.047,14.179,17.047,28.359,17.047,14.18-17.047,28.359-17.047,14.179,17.047,28.358,17.047,14.18-17.047,28.36-17.047,14.18,17.047,28.36,17.047,14.182-17.047,28.363-17.047,14.182,17.047,28.363,17.047" transform="translate(-4201.856 1712.434)" fill="none" stroke="#1300f7" stroke-linecap="round" stroke-miterlimit="10" stroke-width="3.5"/>
        </g>
        <g id="Group_26-2" data-name="Group 26" transform="translate(0 4.886)">
          <circle id="Ellipse_2-2-4" data-name="Ellipse 2-2" cx="10" cy="10" r="10" transform="translate(296 3)" fill="#1400ff"/>
          <circle id="Ellipse_2-2-5" data-name="Ellipse 2-2" cx="5.5" cy="5.5" r="5.5" transform="translate(283 37)" fill="#1400ff"/>
          <circle id="Ellipse_2-2-6" data-name="Ellipse 2-2" cx="8" cy="8" r="8" fill="#1400ff"/>
        </g>
      </g>
    </g>
  </g>
</svg>
